<svg xmlns="http://www.w3.org/2000/svg" version="1.1" xmlns:xlink="http://www.w3.org/1999/xlink" xmlns:svgjs="http://svgjs.dev/svgjs" width="1000" height="1000" viewBox="0 0 1000 1000"><rect width="1000" height="1000" fill="#000000"></rect><g transform="matrix(0.7,0,0,0.7,149.57575757575756,282.1265587044535)"><svg viewBox="0 0 396 247" data-background-color="#ffffff" preserveAspectRatio="xMidYMid meet" height="623" width="1000" xmlns="http://www.w3.org/2000/svg" xmlns:xlink="http://www.w3.org/1999/xlink"><g id="tight-bounds" transform="matrix(1,0,0,1,0.2400000000000091,-0.09999999999999432)"><svg viewBox="0 0 395.52 247.2" height="247.2" width="395.52"><g><svg></svg></g><g><svg viewBox="0 0 395.52 247.2" height="247.2" width="395.52"><g transform="matrix(1,0,0,1,75.54432,79.84633551570177)"><svg viewBox="0 0 244.43135999999998 87.50732896859645" height="87.50732896859645" width="244.43135999999998"><g><svg viewBox="0 0 421.9469923444524 151.05858048" height="87.50732896859645" width="244.43135999999998"><g transform="matrix(1,0,0,1,0,19.494259435402306)"><svg viewBox="0 0 244.43135999999998 112.07006160919538" height="112.07006160919538" width="244.43135999999998"><g id="textblocktransform"><svg viewBox="0 0 244.43135999999998 112.07006160919538" height="112.07006160919538" width="244.43135999999998" id="textblock"><g><svg viewBox="0 0 244.43135999999998 112.07006160919538" height="112.07006160919538" width="244.43135999999998"><g transform="matrix(1,0,0,1,0,0)"><svg width="244.43135999999998" viewBox="0.05000000447034836 -35.900001525878906 78.29999542236328 35.900001525878906" height="112.07006160919538" data-palette-color="#1c4b82"><path d="M10.3 0L0.05 0 0.05-2.85Q1.45-2.85 2.3-3.65 3.15-4.45 3.7-5.78 4.25-7.1 4.85-8.75L4.85-8.75 14.8-35.9 17.5-35.9 28.35-8.25Q28.65-7.4 29.15-5.85 29.65-4.3 29.7-3.15L29.7-3.15Q30.55-3.2 31.35-3.25 32.15-3.3 32.75-3.3L32.75-3.3 32.75 0 20 0 20-2.75Q21.55-2.75 22.1-3.4 22.65-4.05 22.58-5.1 22.5-6.15 22.05-7.25L22.05-7.25 20.8-10.65 9.2-10.45 8.1-7.1Q7.8-6.25 7.4-5.18 7-4.1 6.6-3.25L6.6-3.25Q7.5-3.3 8.58-3.35 9.65-3.4 10.3-3.4L10.3-3.4 10.3 0ZM13-21.35L10.3-13.65 19.7-13.65 17-21Q16.4-22.7 15.88-24.43 15.35-26.15 15-27.6L15-27.6 14.9-27.6Q14.6-26.6 14.18-25 13.75-23.4 13-21.35L13-21.35ZM61.3 0L35.3 0 35.3-2.75Q36.7-2.8 37.45-3.23 38.2-3.65 38.5-4.73 38.8-5.8 38.8-7.7L38.8-7.7 38.8-27.65Q38.8-28.9 38.87-30.05 38.95-31.2 39-31.85L39-31.85Q38.15-31.8 37.05-31.78 35.95-31.75 35.3-31.7L35.3-31.7 35.3-35 48.6-35 48.6-32.25Q47.25-32.2 46.47-31.78 45.7-31.35 45.4-30.3 45.1-29.25 45.1-27.3L45.1-27.3 45.1-7.4Q45.1-6.05 45.05-4.93 45-3.8 44.9-3.15L44.9-3.15 52.5-3.2Q55.5-3.25 57.15-5.25 58.8-7.25 58.8-11.45L58.8-11.45 61.6-11.45 61.3 0ZM78.35-35L78.35-32.25Q77-32.2 76.22-31.78 75.45-31.35 75.15-30.3 74.85-29.25 74.85-27.3L74.85-27.3 74.85-7.45Q74.85-6.1 74.8-4.95 74.75-3.8 74.65-3.15L74.65-3.15Q75.5-3.2 76.6-3.25 77.7-3.3 78.35-3.3L78.35-3.3 78.35 0 65.05 0 65.05-2.75Q66.45-2.8 67.2-3.23 67.95-3.65 68.25-4.73 68.55-5.8 68.55-7.7L68.55-7.7 68.55-27.65Q68.55-28.9 68.62-30.05 68.7-31.2 68.75-31.85L68.75-31.85Q67.9-31.8 66.8-31.78 65.7-31.75 65.05-31.7L65.05-31.7 65.05-35 78.35-35Z" opacity="1" transform="matrix(1,0,0,1,0,0)" fill="#ffffff" class="wordmark-text-0" data-fill-palette-color="primary" id="text-0"></path></svg></g></svg></g></svg></g></svg></g><g transform="matrix(1,0,0,1,270.8884118644524,0)"><svg viewBox="0 0 151.05858048 151.05858048" height="151.05858048" width="151.05858048"><g data-palette-color="#1c4b82"><rect width="41.289345331199996" height="151.05858048" fill="#ffffff" stroke="transparent" data-fill-palette-color="accent" x="0" fill-opacity="1"></rect><rect width="41.289345331199996" height="151.05858048" fill="#ffffff" stroke="transparent" data-fill-palette-color="accent" x="50.35286015999999" fill-opacity="0.75"></rect><rect width="41.289345331199996" height="151.05858048" fill="#ffffff" stroke="transparent" data-fill-palette-color="accent" x="100.70572031999998" fill-opacity="0.5"></rect></g></svg></g></svg></g></svg></g><path d="M174.974 73.846L174.974 16.011 390.151 16.011 390.151 231.189 174.974 231.189 174.974 173.354 180.829 173.354 180.829 225.334 384.297 225.334 384.297 21.866 180.829 21.866 180.829 73.846Z" fill="#ffffff" stroke="transparent" data-fill-palette-color="primary"></path></svg></g><defs></defs></svg><rect width="395.52" height="247.2" fill="none" stroke="none" visibility="hidden"></rect></g></svg></g></svg>